<svg width="108" height="108" viewBox="0 0 108 108" fill="none" xmlns="http://www.w3.org/2000/svg">
<path d="M64.7578 69.3594H62.0156C61.7525 69.3594 61.4975 69.2714 61.3116 69.1061C61.1303 68.9449 61 68.6978 61 68.3438C61 68.1087 61.1201 67.8526 61.3223 67.6504C61.5245 67.4482 61.7805 67.3281 62.0156 67.3281H64.7578C65.1118 67.3281 65.359 67.4584 65.5202 67.6397C65.6854 67.8256 65.7734 68.0806 65.7734 68.3438C65.7734 68.7271 65.6778 68.9687 65.5303 69.1162C65.3827 69.2637 65.1412 69.3594 64.7578 69.3594ZM64.7578 74.8438H62.0156C61.7805 74.8438 61.5245 74.7237 61.3223 74.5215C61.1201 74.3192 61 74.0632 61 73.8281C61 73.593 61.1201 73.337 61.3223 73.1348C61.5245 72.9326 61.7805 72.8125 62.0156 72.8125H64.7578C65.1118 72.8125 65.359 72.9428 65.5202 73.1241C65.6854 73.31 65.7734 73.565 65.7734 73.8281C65.7734 74.0913 65.6854 74.3462 65.5202 74.5322C65.359 74.7135 65.1118 74.8438 64.7578 74.8438ZM64.7578 80.3281H62.0156C61.7805 80.3281 61.5245 80.2081 61.3223 80.0058C61.1201 79.8036 61 79.5476 61 79.3125C61 78.9585 61.1303 78.7113 61.3116 78.5501C61.4975 78.3849 61.7525 78.2969 62.0156 78.2969H64.7578C65.1412 78.2969 65.3827 78.3925 65.5303 78.5401C65.6778 78.6876 65.7734 78.9292 65.7734 79.3125C65.7734 79.5756 65.6854 79.8306 65.5202 80.0165C65.359 80.1978 65.1118 80.3281 64.7578 80.3281ZM45.9844 69.3594H43.2422C42.8588 69.3594 42.6173 69.2637 42.4697 69.1162C42.3222 68.9687 42.2266 68.7271 42.2266 68.3438C42.2266 68.0806 42.3146 67.8256 42.4798 67.6397C42.641 67.4584 42.8882 67.3281 43.2422 67.3281H45.9844C46.2195 67.3281 46.4755 67.4482 46.6777 67.6504C46.8799 67.8526 47 68.1087 47 68.3438C47 68.6978 46.8697 68.9449 46.6884 69.1061C46.5025 69.2714 46.2475 69.3594 45.9844 69.3594ZM45.9844 74.8438H43.2422C42.8882 74.8438 42.641 74.7135 42.4798 74.5322C42.3146 74.3462 42.2266 74.0913 42.2266 73.8281C42.2266 73.565 42.3146 73.31 42.4798 73.1241C42.641 72.9428 42.8882 72.8125 43.2422 72.8125H45.9844C46.2195 72.8125 46.4755 72.9326 46.6777 73.1348C46.8799 73.337 47 73.593 47 73.8281C47 74.0632 46.8799 74.3192 46.6777 74.5215C46.4755 74.7237 46.2195 74.8438 45.9844 74.8438ZM45.9844 80.3281H43.2422C42.8882 80.3281 42.641 80.1978 42.4798 80.0165C42.3146 79.8306 42.2266 79.5756 42.2266 79.3125C42.2266 78.9292 42.3222 78.6876 42.4697 78.5401C42.6173 78.3925 42.8588 78.2969 43.2422 78.2969H45.9844C46.2475 78.2969 46.5025 78.3849 46.6884 78.5501C46.8697 78.7113 47 78.9585 47 79.3125C47 79.5476 46.8799 79.8036 46.6777 80.0058C46.4755 80.2081 46.2195 80.3281 45.9844 80.3281ZM48.5156 66.6172C48.2805 66.6172 48.0245 66.4971 47.8223 66.2949C47.6201 66.0927 47.5 65.8367 47.5 65.6016V62.8594C47.5 62.6243 47.6201 62.3683 47.8223 62.166C48.0245 61.9638 48.2805 61.8438 48.5156 61.8438C48.8697 61.8438 49.1168 61.974 49.278 62.1553C49.4433 62.3413 49.5312 62.5962 49.5312 62.8594V65.6016C49.5312 65.8647 49.4433 66.1197 49.278 66.3056C49.1168 66.4869 48.8697 66.6172 48.5156 66.6172ZM54 66.6172C53.7649 66.6172 53.5089 66.4971 53.3067 66.2949C53.1044 66.0927 52.9844 65.8367 52.9844 65.6016V62.8594C52.9844 62.6243 53.1044 62.3683 53.3067 62.166C53.5089 61.9638 53.7649 61.8438 54 61.8438C54.2351 61.8438 54.4911 61.9638 54.6933 62.166C54.8956 62.3683 55.0156 62.6243 55.0156 62.8594V65.6016C55.0156 65.8367 54.8956 66.0927 54.6933 66.2949C54.4911 66.4971 54.2351 66.6172 54 66.6172ZM59.4844 66.6172C59.1303 66.6172 58.8832 66.4869 58.722 66.3056C58.5567 66.1197 58.4688 65.8647 58.4688 65.6016V62.8594C58.4688 62.5962 58.5567 62.3413 58.722 62.1553C58.8832 61.974 59.1303 61.8438 59.4844 61.8438C59.7195 61.8438 59.9755 61.9638 60.1777 62.166C60.3799 62.3683 60.5 62.6243 60.5 62.8594V65.6016C60.5 65.8367 60.3799 66.0927 60.1777 66.2949C59.9755 66.4971 59.7195 66.6172 59.4844 66.6172ZM48.5156 85.8125C48.2805 85.8125 48.0245 85.6924 47.8223 85.4902C47.6201 85.288 47.5 85.032 47.5 84.7969V82.0547C47.5 81.7007 47.6303 81.4535 47.8116 81.2923C47.9975 81.1271 48.2525 81.0391 48.5156 81.0391C48.899 81.0391 49.1405 81.1347 49.2881 81.2822C49.4356 81.4298 49.5312 81.6713 49.5312 82.0547V84.7969C49.5312 85.06 49.4433 85.315 49.278 85.5009C49.1168 85.6822 48.8697 85.8125 48.5156 85.8125ZM54 85.8125C53.7649 85.8125 53.5089 85.6924 53.3067 85.4902C53.1044 85.288 52.9844 85.032 52.9844 84.7969V82.0547C52.9844 81.7007 53.1147 81.4535 53.296 81.2923C53.4819 81.1271 53.7369 81.0391 54 81.0391C54.2631 81.0391 54.5181 81.1271 54.704 81.2923C54.8853 81.4535 55.0156 81.7007 55.0156 82.0547V84.7969C55.0156 85.032 54.8956 85.288 54.6933 85.4902C54.4911 85.6924 54.2351 85.8125 54 85.8125ZM59.4844 85.8125C59.1303 85.8125 58.8832 85.6822 58.722 85.5009C58.5567 85.315 58.4688 85.06 58.4688 84.7969V82.0547C58.4688 81.6713 58.5644 81.4298 58.7119 81.2822C58.8595 81.1347 59.101 81.0391 59.4844 81.0391C59.7475 81.0391 60.0025 81.1271 60.1884 81.2923C60.3697 81.4535 60.5 81.7007 60.5 82.0547V84.7969C60.5 85.032 60.3799 85.288 60.1777 85.4902C59.9755 85.6924 59.7195 85.8125 59.4844 85.8125Z" fill="black" stroke="white" stroke-width="0.5"/>
<path d="M47.25 66.6172H47V66.8672V67.0781V80.5781V80.7891V81.0391H47.25H60.75H61V80.7891V80.5781V67.0781V66.8672V66.6172H60.75H47.25ZM60.75 83.0703H47.25C45.9369 83.0703 44.9688 81.9435 44.9688 80.5781V67.0781C44.9688 65.7128 45.9369 64.5859 47.25 64.5859H60.75C62.0631 64.5859 63.0312 65.7128 63.0312 67.0781V80.5781C63.0312 81.9435 62.0631 83.0703 60.75 83.0703Z" fill="black" stroke="white" stroke-width="0.5"/>
<path d="M54 78.8516C51.1914 78.8516 48.9766 76.4387 48.9766 73.8281C48.9766 71.0131 51.1849 68.8047 54 68.8047C56.8151 68.8047 59.0234 71.0131 59.0234 73.8281C59.0234 76.4387 56.8086 78.8516 54 78.8516ZM54 70.8359C52.3854 70.8359 51.0078 72.2135 51.0078 73.8281C51.0078 75.4428 52.3854 76.8203 54 76.8203C55.6146 76.8203 56.9922 75.4428 56.9922 73.8281C56.9922 72.2135 55.6146 70.8359 54 70.8359Z" fill="#30B795" stroke="white" stroke-width="0.5"/>
<path d="M40.5 43.4922H40.75V43.2422V40.9219V40.6719H40.5H39.4453C39.0721 40.6719 38.7417 40.7974 38.5039 41.0351C38.2661 41.2729 38.1406 41.6033 38.1406 41.9766V42.1875C38.1406 42.5607 38.2661 42.8912 38.5039 43.1289C38.7417 43.3667 39.0721 43.4922 39.4453 43.4922H40.5ZM67.25 43.2422V43.4922H67.5H68.5547C68.9279 43.4922 69.2583 43.3667 69.4961 43.1289C69.7339 42.8912 69.8594 42.5607 69.8594 42.1875V41.9766C69.8594 41.6033 69.7339 41.2729 69.4961 41.0351C69.2583 40.7974 68.9279 40.6719 68.5547 40.6719H67.5H67.25V40.9219V43.2422ZM51.4297 57.375V57.625H51.6797H56.3203H56.5703V57.375V52.5234V52.2734H56.3203H51.6797H51.4297V52.5234V57.375ZM41.7656 45.5234H39.4453C37.6849 45.5234 36.1094 43.9479 36.1094 42.1875V41.9766C36.1094 40.0148 37.6752 38.6406 39.4453 38.6406H41.7656C42.0007 38.6406 42.2567 38.7607 42.459 38.9629C42.6612 39.1651 42.7812 39.4212 42.7812 39.6562V44.5078C42.7812 44.7429 42.6612 44.9989 42.459 45.2012C42.2567 45.4034 42.0007 45.5234 41.7656 45.5234ZM68.5547 45.5234H66.2344C65.9993 45.5234 65.7433 45.4034 65.541 45.2012C65.3388 44.9989 65.2188 44.7429 65.2188 44.5078V39.6562C65.2188 39.4212 65.3388 39.1651 65.541 38.9629C65.7433 38.7607 65.9993 38.6406 66.2344 38.6406H68.5547C70.3248 38.6406 71.8906 40.0148 71.8906 41.9766V42.1875C71.8906 43.9479 70.3151 45.5234 68.5547 45.5234ZM57.5859 59.6562H50.4141C50.179 59.6562 49.9229 59.5362 49.7207 59.334C49.5185 59.1317 49.3984 58.8757 49.3984 58.6406V51.2578C49.3984 51.0227 49.5185 50.7667 49.7207 50.5645C49.9229 50.3623 50.179 50.2422 50.4141 50.2422H57.5859C57.821 50.2422 58.0771 50.3623 58.2793 50.5645C58.4815 50.7667 58.6016 51.0227 58.6016 51.2578V58.6406C58.6016 58.8757 58.4815 59.1317 58.2793 59.334C58.0771 59.5362 57.821 59.6562 57.5859 59.6562Z" fill="black" stroke="white" stroke-width="0.5"/>
<path d="M64.5469 52.2734H43.4531C41.9037 52.2734 40.75 51.1197 40.75 49.5703V34.5938C40.75 33.0443 41.9037 31.8906 43.4531 31.8906H64.5469C66.0963 31.8906 67.25 33.0443 67.25 34.5938V49.5703C67.25 51.1197 66.0963 52.2734 64.5469 52.2734ZM43.4531 33.9219C43.2663 33.9219 43.1005 34.0127 42.9863 34.1269C42.8721 34.2411 42.7812 34.407 42.7812 34.5938V49.5703C42.7812 49.7571 42.8721 49.9229 42.9863 50.0371C43.1005 50.1513 43.2663 50.2422 43.4531 50.2422H64.5469C64.7337 50.2422 64.8995 50.1513 65.0137 50.0371C65.1279 49.9229 65.2188 49.7571 65.2188 49.5703V34.5938C65.2188 34.407 65.1279 34.2411 65.0137 34.1269C64.8995 34.0127 64.7337 33.9219 64.5469 33.9219H43.4531Z" fill="black" stroke="white" stroke-width="0.5"/>
<path d="M67.2891 89.8203H40.7109C38.5197 89.8203 36.9531 88.2359 36.9531 86.2734V61.3828C36.9531 59.2006 38.5287 57.625 40.7109 57.625H67.2891C69.4713 57.625 71.0469 59.2006 71.0469 61.3828V86.2734C71.0469 88.2359 69.4803 89.8203 67.2891 89.8203ZM40.7109 59.6562C39.7291 59.6562 38.9844 60.401 38.9844 61.3828V86.2734C38.9844 86.7644 39.1719 87.1554 39.5001 87.4179C39.8207 87.6744 40.2509 87.7891 40.7109 87.7891H67.2891C67.7491 87.7891 68.1793 87.6744 68.4999 87.4179C68.8281 87.1554 69.0156 86.7644 69.0156 86.2734V61.3828C69.0156 60.401 68.2709 59.6562 67.2891 59.6562H40.7109Z" fill="black" stroke="white" stroke-width="0.5"/>
<path d="M48.7266 45.7344C46.7641 45.7344 45.1797 44.1678 45.1797 41.9766C45.1797 40.0053 46.7553 38.4297 48.7266 38.4297C50.7156 38.4297 52.4844 40.0224 52.4844 41.9766C52.4844 44.1503 50.7065 45.7344 48.7266 45.7344ZM48.7266 40.4609C48.3288 40.4609 47.9521 40.6573 47.6797 40.9297C47.4073 41.2021 47.2109 41.5788 47.2109 41.9766C47.2109 42.933 47.9316 43.7031 48.7266 43.7031C49.7084 43.7031 50.4531 42.9584 50.4531 41.9766C50.4531 41.1816 49.683 40.4609 48.7266 40.4609ZM59.2734 45.7344C57.2935 45.7344 55.5156 44.1503 55.5156 41.9766C55.5156 40.0224 57.2844 38.4297 59.2734 38.4297C61.2447 38.4297 62.8203 40.0053 62.8203 41.9766C62.8203 44.1678 61.2359 45.7344 59.2734 45.7344ZM59.2734 40.4609C58.317 40.4609 57.5469 41.1816 57.5469 41.9766C57.5469 42.9584 58.2916 43.7031 59.2734 43.7031C60.0684 43.7031 60.7891 42.933 60.7891 41.9766C60.7891 41.5788 60.5927 41.2021 60.3203 40.9297C60.0479 40.6573 59.6712 40.4609 59.2734 40.4609Z" fill="#30B795" stroke="white" stroke-width="0.5"/>
<path d="M50.006 33.4273L50.0023 33.4199L49.9982 33.4128L44.9491 24.7873C44.856 24.5 44.8194 24.238 44.8604 24.0125C44.9006 23.7915 45.0185 23.5858 45.2805 23.4111C45.7855 23.0744 46.475 23.2331 46.829 23.759L51.8735 32.1665C51.9536 32.4255 51.9544 32.7361 51.8855 33.0346C51.8222 33.3091 51.7047 33.553 51.5601 33.7233C51.5146 33.7323 51.473 33.7451 51.4361 33.7582C51.3932 33.7733 51.3433 33.7939 51.2991 33.8122C51.2797 33.8202 51.2614 33.8278 51.2452 33.8343C51.127 33.8816 51.0027 33.9219 50.8371 33.9219C50.496 33.9219 50.1687 33.7527 50.006 33.4273ZM58.0042 33.4128L58 33.4199L57.9963 33.4273C57.8336 33.7527 57.5063 33.9219 57.1652 33.9219C56.9996 33.9219 56.8753 33.8816 56.7571 33.8343C56.7409 33.8278 56.7226 33.8202 56.7032 33.8122C56.659 33.7939 56.6091 33.7733 56.5662 33.7582C56.5293 33.7451 56.4877 33.7323 56.4422 33.7233C56.2976 33.553 56.1802 33.3091 56.1168 33.0346C56.0479 32.7361 56.0487 32.4255 56.1288 32.1665L61.1733 23.759C61.5273 23.2331 62.2168 23.0744 62.7219 23.4111C62.9839 23.5858 63.1017 23.7915 63.1419 24.0125C63.1829 24.238 63.1463 24.5 63.0532 24.7873L58.0042 33.4128Z" fill="black" stroke="white" stroke-width="0.5"/>
<path d="M44.5078 25.6953C42.3172 25.6953 40.5391 23.9006 40.5391 21.9375C40.5391 19.7718 42.3084 18.1797 44.5078 18.1797C46.4878 18.1797 48.2656 19.7638 48.2656 21.9375C48.2656 23.9088 46.4791 25.6953 44.5078 25.6953ZM44.5078 20.2109C44.026 20.2109 43.5478 20.3906 43.1876 20.6908C42.8261 20.992 42.5703 21.4272 42.5703 21.9375C42.5703 22.4478 42.8261 22.883 43.1876 23.1842C43.5478 23.4844 44.026 23.6641 44.5078 23.6641C45.4896 23.6641 46.2344 22.9193 46.2344 21.9375C46.2344 20.9557 45.4896 20.2109 44.5078 20.2109ZM63.4922 25.6953C61.5209 25.6953 59.7344 23.9088 59.7344 21.9375C59.7344 19.7638 61.5122 18.1797 63.4922 18.1797C65.6916 18.1797 67.4609 19.7718 67.4609 21.9375C67.4609 23.9006 65.6828 25.6953 63.4922 25.6953ZM63.4922 20.2109C62.5104 20.2109 61.7656 20.9557 61.7656 21.9375C61.7656 22.9193 62.5104 23.6641 63.4922 23.6641C63.974 23.6641 64.4522 23.4844 64.8124 23.1842C65.1739 22.883 65.4297 22.4478 65.4297 21.9375C65.4297 21.4272 65.1739 20.992 64.8124 20.6908C64.4522 20.3906 63.974 20.2109 63.4922 20.2109Z" fill="black" stroke="white" stroke-width="0.5"/>
<path d="M87.75 14.9375H20.25C20.0149 14.9375 19.7589 14.8174 19.5567 14.6152C19.3544 14.413 19.2344 14.157 19.2344 13.9219C19.2344 13.5678 19.3647 13.3207 19.546 13.1595C19.7319 12.9942 19.9869 12.9062 20.25 12.9062H87.75C88.0131 12.9062 88.2681 12.9942 88.454 13.1595C88.6353 13.3207 88.7656 13.5678 88.7656 13.9219C88.7656 14.157 88.6456 14.413 88.4433 14.6152C88.2411 14.8174 87.9851 14.9375 87.75 14.9375ZM87.75 95.0938H20.25C19.9869 95.0938 19.7319 95.0058 19.546 94.8405C19.3647 94.6793 19.2344 94.4322 19.2344 94.0781C19.2344 93.843 19.3544 93.587 19.5567 93.3848C19.7589 93.1826 20.0149 93.0625 20.25 93.0625H87.75C87.9851 93.0625 88.2411 93.1826 88.4433 93.3848C88.6456 93.587 88.7656 93.843 88.7656 94.0781C88.7656 94.4322 88.6353 94.6793 88.454 94.8405C88.2681 95.0058 88.0131 95.0938 87.75 95.0938ZM59.4844 8.60938H48.5156C48.1616 8.60938 47.9144 8.4791 47.7533 8.29778C47.588 8.11185 47.5 7.85689 47.5 7.59375C47.5 7.33061 47.588 7.07565 47.7533 6.88972C47.9144 6.7084 48.1616 6.57812 48.5156 6.57812H59.4844C59.8384 6.57812 60.0856 6.7084 60.2467 6.88972C60.412 7.07565 60.5 7.33061 60.5 7.59375C60.5 7.85689 60.412 8.11185 60.2467 8.29778C60.0856 8.4791 59.8384 8.60938 59.4844 8.60938ZM59.4844 101.422H48.5156C48.1616 101.422 47.9144 101.292 47.7533 101.11C47.588 100.924 47.5 100.669 47.5 100.406C47.5 100.143 47.588 99.8881 47.7533 99.7022C47.9144 99.5209 48.1616 99.3906 48.5156 99.3906H59.4844C59.8384 99.3906 60.0856 99.5209 60.2467 99.7022C60.412 99.8881 60.5 100.143 60.5 100.406C60.5 100.669 60.412 100.924 60.2467 101.11C60.0856 101.292 59.8384 101.422 59.4844 101.422Z" fill="black" stroke="white" stroke-width="0.5"/>
<path d="M82.4766 107.75H25.5234C22.0756 107.75 19.2344 104.909 19.2344 101.461V6.53906C19.2344 3.0912 22.0756 0.25 25.5234 0.25H82.4766C85.9244 0.25 88.7656 3.0912 88.7656 6.53906V101.461C88.7656 104.909 85.9244 107.75 82.4766 107.75ZM25.5234 2.28125C23.0566 2.28125 21.2656 4.30026 21.2656 6.53906V101.461C21.2656 103.7 23.0566 105.719 25.5234 105.719H82.4766C84.9434 105.719 86.7344 103.7 86.7344 101.461V6.53906C86.7344 4.30026 84.9434 2.28125 82.4766 2.28125H25.5234Z" fill="black" stroke="white" stroke-width="0.5"/>
</svg>
