<svg width="128" height="128" viewBox="0 0 128 128" fill="none" xmlns="http://www.w3.org/2000/svg">
<g id="natural-language-processing-symbol">
<g id="Group">
<path id="Vector" d="M96.7726 98.9685L101.335 99.3029C101.335 101.404 100.325 103.224 98.6869 104.462C97.0586 105.681 94.8438 106.335 92.4061 106.119L28.4537 100.464C24.8141 100.141 21.9062 97.0178 21.9062 93.4775L25.1994 93.7199L48.7502 95.4452C49.2542 95.4839 49.7146 95.7069 50.0441 96.0413C50.3761 96.3757 50.5821 96.8191 50.5821 97.2916C50.5821 98.2343 51.4084 99.0678 52.4286 99.1502L63.7932 100.069C63.8538 100.073 63.912 100.076 63.9701 100.076C64.9685 100.076 65.7512 99.3828 65.7512 98.4596C65.7512 97.4831 66.6332 96.7585 67.7261 96.8385L96.7726 98.9685Z" fill="white"/>
<path id="Vector_2" d="M55.8005 70.8307V57.2222C55.8005 55.0656 53.8935 53.3596 51.5648 53.4178L25.2177 54.0551L25.2031 53.4154V48.964C25.2031 47.6967 26.2305 46.6668 27.5003 46.6668H62.1226L62.1735 46.5796C64.3107 47.8372 66.9205 48.5327 69.7653 48.4454L70.09 48.4357V55.5647L79.017 48.1571L93.6553 47.7015C94.5858 47.6724 95.4994 47.5731 96.3887 47.4107L96.7764 47.8808V98.9686L67.7298 96.8386L48.7539 95.4453L25.2031 93.72V78.5728L25.2201 78.1075L30.2554 78.2868V84.5119L37.7188 78.5534L51.5648 79.0501C53.8935 79.1325 55.8005 77.4508 55.8005 75.2942V70.8307ZM78.8813 63.0863C80.5411 64.7485 83.3108 64.671 85.0652 62.9166C86.8196 61.1622 86.8947 58.3926 85.2348 56.7327C83.5725 55.0728 80.8053 55.1479 79.0509 56.9023C77.2965 58.6567 77.219 61.4264 78.8813 63.0863Z" fill="white"/>
<path id="Vector_3" d="M109.444 33.8603C109.444 37.5484 107.622 40.9675 104.707 43.4876C102.454 45.431 99.5676 46.8291 96.386 47.4107C95.4967 47.573 94.5831 47.6724 93.6526 47.7015L79.0143 48.157L70.0873 55.5647V48.4357L69.7626 48.4454C66.9178 48.5326 64.308 47.8372 62.1708 46.5795C58.7274 44.5513 56.5078 41.0596 56.5078 37.0274C56.5078 33.7585 57.9496 30.6932 60.3025 28.3573C62.6821 25.9947 66.0163 24.3542 69.7626 24.0246L93.6526 21.9116C102.238 21.1532 109.444 26.489 109.444 33.8603ZM86.5479 39.0289V31.7473C86.5479 31.4468 86.2668 31.2239 85.9179 31.2481L81.3454 31.5631C81.0061 31.5874 80.7299 31.8442 80.7299 32.1399V39.327C80.7299 39.6202 81.0061 39.8456 81.3454 39.8286L85.9179 39.6008C86.2668 39.5838 86.5479 39.327 86.5479 39.0289ZM69.1955 39.9183V32.9201C69.1955 32.6342 68.9339 32.4185 68.614 32.4403L64.388 32.7311C64.0754 32.7529 63.8209 33.0001 63.8209 33.2836V40.1921C63.8209 40.4756 64.0754 40.6937 64.388 40.6767L68.614 40.4659C68.9339 40.4489 69.1955 40.2042 69.1955 39.9183Z" fill="#C7C7C7"/>
<path id="Vector_4" d="M86.5524 31.7471V39.0287C86.5524 39.3268 86.2713 39.5836 85.9224 39.6006L81.3499 39.8284C81.0106 39.8453 80.7344 39.62 80.7344 39.3268V32.1396C80.7344 31.844 81.0106 31.5871 81.3499 31.5629L85.9224 31.2479C86.2713 31.2237 86.5524 31.4466 86.5524 31.7471Z" fill="#C7C7C7"/>
<path id="Vector_5" d="M85.2314 56.7328C86.8912 58.3927 86.8161 61.1624 85.0617 62.9168C83.3074 64.6711 80.5377 64.7487 78.8778 63.0864C77.2155 61.4265 77.293 58.6568 79.0474 56.9024C80.8018 55.1481 83.5691 55.073 85.2314 56.7328Z" fill="#30B795"/>
<path id="Vector_6" d="M69.1949 32.9203V39.9184C69.1949 40.2043 68.9332 40.4491 68.6134 40.466L64.3873 40.6768C64.0748 40.6938 63.8203 40.4757 63.8203 40.1922V33.2837C63.8203 33.0002 64.0748 32.7531 64.3873 32.7313L68.6134 32.4405C68.9332 32.4187 69.1949 32.6343 69.1949 32.9203Z" fill="#C7C7C7"/>
<path id="Vector_7" d="M55.7989 70.8309V75.2944C55.7989 77.451 53.8918 79.1327 51.5632 79.0503L37.7171 78.5535L30.2538 84.5121V78.287L25.2184 78.1077L22.158 77.9986C20.1588 77.9259 18.5547 76.2709 18.5547 74.2984V57.7869C18.5547 55.8193 20.1588 54.1788 22.158 54.1304L25.216 54.0553L51.5632 53.4179C53.8918 53.3598 55.7989 55.0657 55.7989 57.2223V70.8309Z" fill="#30B795"/>
<path id="Vector_8" d="M48.8552 32.6025C50.8494 32.6025 52.4681 34.2212 52.4681 36.2155C52.4681 38.2122 50.8494 39.8309 48.8552 39.8309C46.8584 39.8309 45.2422 38.2122 45.2422 36.2155C45.2422 34.2212 46.8584 32.6025 48.8552 32.6025Z" fill="#C7C7C7"/>
</g>
<g id="Group_2">
<path id="Vector_9" d="M96.7764 47.8809V98.9686L67.7298 96.8387C66.637 96.7587 65.7549 97.4832 65.7549 98.4598C65.7549 99.383 64.9723 100.076 63.9739 100.076C63.9157 100.076 63.8576 100.074 63.797 100.069L52.4323 99.1504C51.4122 99.068 50.5859 98.2344 50.5859 97.2918C50.5859 96.8193 50.3799 96.3758 50.0479 96.0415C49.7184 95.707 49.258 95.4841 48.7539 95.4453L25.2031 93.72V78.5728" stroke="#02204C" stroke-width="1.5" stroke-linecap="round" stroke-linejoin="round"/>
<path id="Vector_10" d="M96.7726 98.969L101.335 99.3033C101.335 101.404 100.325 103.224 98.6869 104.462C97.0586 105.681 94.8438 106.335 92.4061 106.12L28.4537 100.464C24.8141 100.142 21.9062 97.0183 21.9062 93.478L25.1994 93.7204" stroke="#02204C" stroke-width="1.5" stroke-linecap="round" stroke-linejoin="round"/>
<path id="Vector_11" d="M48.75 95.4453L67.726 96.8393" stroke="#02204C" stroke-width="1.5" stroke-linecap="round" stroke-linejoin="round"/>
<path id="Vector_12" d="M68.6134 40.4661L64.3873 40.6769C64.0748 40.6939 63.8203 40.4758 63.8203 40.1923V33.2838C63.8203 33.0003 64.0748 32.7532 64.3873 32.7314L68.6134 32.4406C68.9332 32.4188 69.1949 32.6344 69.1949 32.9204V39.9185C69.1949 40.2044 68.9332 40.4492 68.6134 40.4661ZM85.9173 39.6011L81.3447 39.8288C81.0055 39.8458 80.7292 39.6204 80.7292 39.3272V32.1401C80.7292 31.8445 81.0055 31.5876 81.3447 31.5634L85.9173 31.2484C86.2662 31.2241 86.5473 31.4471 86.5473 31.7476V39.0292C86.5473 39.3272 86.2662 39.5841 85.9173 39.6011Z" stroke="white" stroke-width="1.844" stroke-linecap="round" stroke-linejoin="round"/>
<path id="Vector_13" d="M75.0312 40.146V31.999" stroke="white" stroke-width="1.844" stroke-linecap="round" stroke-linejoin="round"/>
<path id="Vector_14" d="M93.25 39.2331V30.7441" stroke="white" stroke-width="1.844" stroke-linecap="round" stroke-linejoin="round"/>
<path id="Vector_15" d="M100.477 38.8711V30.2451" stroke="white" stroke-width="1.844" stroke-linecap="round" stroke-linejoin="round"/>
<path id="Vector_16" d="M45.2356 36.8052L34.2656 36.8922V46.1822" stroke="#02204C" stroke-width="1.5" stroke-linecap="round" stroke-linejoin="round"/>
<path id="Vector_17" d="M78.8769 63.0859L69.6259 71.1579L55.7969 70.8309" stroke="#02204C" stroke-width="1.5" stroke-linecap="round" stroke-linejoin="round"/>
<path id="Vector_18" d="M22.4688 67.9135C22.6966 67.962 25.1246 68.5678 26.7457 67.9887C28.3789 67.4047 28.517 66.0598 28.8296 65.3014C29.1422 64.5429 29.6147 63.0042 30.7366 63.0502C31.8683 63.0963 31.9264 67.4216 32.0476 68.6042C32.1663 69.7867 32.2656 72.0232 33.8044 72.0402C35.0523 72.0644 35.5369 67.9523 35.6193 66.1495C35.6993 64.3466 35.8835 59.1562 37.7759 59.1029C39.6878 59.0496 39.4819 64.904 39.8526 66.4669C40.2258 68.0323 41.1175 69.0209 44.1125 68.861C47.1488 68.6987 49.9718 67.8651 49.9718 67.8651" stroke="white" stroke-width="1.844" stroke-linecap="round" stroke-linejoin="round"/>
<path id="Vector_19" d="M62.1226 46.667H27.5003C26.2305 46.667 25.2031 47.6968 25.2031 48.9642V53.4155" stroke="#02204C" stroke-width="1.5" stroke-linecap="round" stroke-linejoin="round"/>
<path id="Vector_20" d="M63.8203 79.7993L87.7273 81.3233" stroke="#02204C" stroke-width="1.5" stroke-linecap="round" stroke-linejoin="round"/>
<path id="Vector_21" d="M63.8203 86.9961L87.7273 88.5221" stroke="#02204C" stroke-width="1.5" stroke-linecap="round" stroke-linejoin="round"/>
</g>
</g>
</svg>
