<?xml version="1.0" encoding="UTF-8"?>
<svg id="Layer_2" data-name="Layer 2" xmlns="http://www.w3.org/2000/svg" xmlns:xlink="http://www.w3.org/1999/xlink" viewBox="0 0 453.76 486.64">
  <defs>
    <style>
      .cls-1 {
        fill: none;
      }

      .cls-2 {
        fill: #30b795;
      }

      .cls-3 {
        clip-path: url(#clippath-1);
      }

      .cls-4 {
        fill: #202020;
      }

      .cls-5 {
        clip-path: url(#clippath);
      }
    </style>
    <clipPath id="clippath">
      <rect class="cls-1" width="453.76" height="486.64"/>
    </clipPath>
    <clipPath id="clippath-1">
      <rect class="cls-1" x="17" y="-.44" width="420" height="419"/>
    </clipPath>
  </defs>
  <g id="Layer_1-2" data-name="Layer 1">
    <g class="cls-5">
      <g>
        <path class="cls-4" d="M165.69,158.79c.76-.12,1.48-.34,2.15-.65-.72.2-1.44.42-2.15.65ZM235.92,134.02c-2.65-.17-5.31-.26-8-.26-.46,0-.92,0-1.38.02,1.45,0,2.89.02,4.34.06,1.69.04,3.37.11,5.04.19.14.01.28.02.41.02-.14-.01-.28-.02-.41-.03ZM233.84,352.46v.04c.81-.04,1.62-.09,2.43-.15-.81.04-1.62.08-2.43.11Z"/>
        <path class="cls-4" d="M165.69,158.79c.76-.12,1.48-.34,2.15-.65-.72.2-1.44.42-2.15.65ZM227.92,133.76c-.46,0-.92,0-1.38.02,1.45,0,2.89.02,4.34.06,1.69.04,3.37.11,5.04.19-2.65-.18-5.31-.27-8-.27Z"/>
        <g class="cls-3">
          <g>
            <path d="M317.1,418.56c-.28,0-.56,0-.85-.04l-180.01-.03c-7.52-.24-17.14-10.34-17.14-18v-161.41h-.04c-.02-1.49-.02-4.24,0-5.75h.04v-117.68c.11-.56,1.95-5.85,2.41-6.78,2.54-5.25,8.22-9.2,14.84-10.33l179.8-.03c6.71.14,13.66,4.51,16.49,10.36.45.93,2.3,6.22,2.41,6.9v284.73c0,3.57-2.26,8.13-5.89,11.89-3.75,3.89-8.26,6.19-12.06,6.19v-.02ZM222.03,104.87c-32.05,0-60.72.35-87.65,1.05h-.17l-.15.06c-5.35,1.68-8.09,7.8-8.44,13.11v279.64c.16,7.52,5.23,12.96,12.32,13.25h178.22c7.14-.29,12.21-5.73,12.38-13.23V119.17c-.11-3.33-1.86-8.44-4.28-10.79-1.01-.97-2.41-1.61-3.66-2.16-.34-.15-.68-.3-.99-.45l-.24-.12h-.26c-28.62-.4-62.53-.79-97.07-.79h-.01Z"/>
            <path class="cls-2" d="M89.29,239.38c-3.19,0-5.93-.12-8.41-.37-16.81-1.7-37.12-13.55-48.29-28.2-17.38-22.78-20.44-51.46-8.16-76.74,12.38-25.51,37.94-41.69,66.71-42.19h1l.16-1.02c4.6-30.15,30.88-52.9,61.13-52.9,8.9,0,17.54,2.01,25.67,5.97l1.16.56.47-1.19C191.7,16.32,216.97-.44,246.66-.44c27.05,0,50.66,14.08,63.19,37.66l.31.57.65.05c34.25,2.84,59.98,33.1,57.33,67.43l-.09,1.31,1.33-.03c.62-.02,1.24-.03,1.87-.03,27.84,0,52.04,17.19,61.65,43.81,7.68,21.28,6.46,51.83-20.04,73.72-7.19,5.94-24.1,14.93-33.21,14.93h-29.56v-5.65h22.4c22.74,0,46.73-17.7,54.62-40.3,6.53-18.72,4.34-37.68-6.19-53.37-10.97-16.35-29.25-26.4-50.15-27.56h-.42c-1.07,0-2.16.21-3.21.42-1.01.2-1.96.38-2.83.38-1.34,0-2.23-.44-3-1.5-.94-1.29-.66-2.27-.23-3.75.23-.8.51-1.73.53-2.74.5-21.82-6.21-37.42-21.1-49.11-9.75-7.63-20.75-10.5-34.23-12.38-11.41-23.31-34.45-37.76-60.29-37.76-23.46,0-44.47,12.33-56.19,32.98-.53.92-1.18,2.42-1.93,4.14-1.15,2.64-3.55,8.16-4.71,8.57-.03,0-.14.04-.34.04-1.82,0-5.97-1.64-9.64-3.09-2.93-1.16-5.7-2.26-7.56-2.65-4.24-.91-8.51-1.38-12.68-1.38-26.2,0-47.85,18.25-53.87,45.41-.25,1.15-.31,2.33-.36,3.48-.16,3.42-.4,5.23-3.73,5.68-2.56.35-4.96.37-7.49.4-3.38.03-6.88.07-10.99.9-23.12,4.65-41.54,20.98-49.26,43.68-7.91,23.25-3.11,48.04,12.84,66.3,18.05,20.66,41.26,23.51,63.66,23.51h.35v5.26c-1.29.05-2.6.1-3.91.16-3.59.14-7.31.3-10.87.3l-.02.03Z"/>
            <path d="M152.16,130.61h149.82v226.29h-149.82v-226.29ZM157.87,350.33h138.42v-213.13h-138.42v213.13Z"/>
            <path d="M227.07,400.81c-9.06,0-16.45-7.36-16.45-16.4s7.38-16.41,16.45-16.41,16.44,7.35,16.44,16.41-7.37,16.4-16.44,16.4ZM227.09,374.34c-5.56,0-10.08,4.51-10.08,10.06s4.52,10.06,10.08,10.06,10.08-4.51,10.08-10.06-4.52-10.06-10.08-10.06Z"/>
            <path class="cls-2" d="M258.1,295.01c-1.02,0-2.1-.26-2.89-.67-.6-.33-.99-.72-.99-1.02v-88.87l-1.67.71c-1.46.62-3.36,2.61-6.34,5.79-3.63,3.89-8.6,9.2-11.53,9.21-.47,0-1.08-.13-1.68-1.11-.48-1-.55-2.43-.14-3.77.55-1.82,6.54-7.24,11.36-11.6,4.78-4.33,9.3-8.42,10.96-10.9.65-.42,1.47-.66,2.3-.66s1.64.23,2.31.66c1.67,2.46,6.18,6.57,10.95,10.9,4.82,4.36,10.8,9.78,11.37,11.6.4,1.34.33,2.79-.2,3.86-.54.89-1.15,1.02-1.63,1.02-2.92,0-7.89-5.32-11.53-9.21-2.97-3.18-4.87-5.17-6.34-5.79l-1.66-.71v88.87c0,1.52-1.87,1.69-2.67,1.69h.02Z"/>
            <path class="cls-2" d="M196.56,295.29c-1.05-.03-1.87-.62-2.89-1.35l-.36-.25c-3.51-2.48-7.12-6.53-10.61-10.47-3.33-3.75-6.78-7.64-10.3-10.34-.59-.81-.77-1.95-.53-3.43.39-2.36,1.26-2.36,1.59-2.36,2.88,0,8.67,6.03,12.49,10.02,2.89,3.01,4.58,4.75,5.73,5.25l1.69.74v-89.79c0-.23,1.17-1.04,3.24-1.04.55,0,3.3.09,3.3,1.92v89.05l1.77-.94c2.01-1.06,4.73-3.99,7.61-7.1,3.14-3.39,7.44-8.02,9.27-8.03,1.14,0,1.99.41,2.48,1.18.55.88.58,2.07.09,3.26l-24.58,23.67h.01Z"/>
          </g>
        </g>
      </g>
    </g>
  </g>
</svg>