<?xml version="1.0" encoding="UTF-8"?>
<svg id="Layer_2" data-name="Layer 2" xmlns="http://www.w3.org/2000/svg" xmlns:xlink="http://www.w3.org/1999/xlink" viewBox="0 0 483 498">
  <defs>
    <style>
      .cls-1 {
        fill: none;
      }

      .cls-2 {
        fill: #30b795;
      }

      .cls-3 {
        clip-path: url(#clippath);
      }
    </style>
    <clipPath id="clippath">
      <rect class="cls-1" width="483" height="498"/>
    </clipPath>
  </defs>
  <g id="Layer_1-2" data-name="Layer 1">
    <g class="cls-3">
      <g>
        <path d="M413.48,498c-.3,0-.59,0-.87-.05l-.32-.04-343.06-.05h-.41c-3,0-7.54-2.28-11.27-5.65-3.71-3.36-6.1-7.26-6.1-9.92V199.47l-6.07,1.24c-2.75.57-5.51.85-8.2.85-10.71,0-20.48-4.52-27.51-12.69-7.53-8.76-10.9-20.69-9.26-32.76l50.3-85.05.16-.82c1.46-7.13,1.01-15.94.53-25.27-.98-19.14-1.98-38.91,13.35-43.67C104.43.41,146.49,0,201.09,0c25.27,0,50.99.09,75.86.16h.57c23.74.07,50.64.18,76.46.18,21.73,0,41-.05,58.88-.2,19.6,1.76,20.25,18.13,18.96,44.86-.44,9.24-.87,17.99.5,25.17l.13.66.28.59c6.44,13.35,15.42,26.82,24.1,39.85,9,13.49,18.29,27.43,24.37,40.74,2.28,4.98,1.87,11.79,1.37,16.48-1.98,18.59-18.02,33.17-36.54,33.17-2.71,0-5.42-.3-8.09-.92l-6.19-1.42v282.96c0,6.17-11.12,15.73-18.3,15.73h.03ZM67.8,187.45c-.59.62-1.41,1.33-2.28,2.08-2.82,2.42-6.63,5.69-7.24,10.72l-.03.3.53,282.29,7.74,7.71h350.17l7.74-7.71.53-281.98c.18-5.35-8.06-12.9-10.23-14.03-.93-.48-1.94-.73-2.99-.73-3.94,0-7.01,3.34-9.7,6.31-.55.6-1.46,1.6-1.77,1.83-6.16,4.78-14.33,7.41-22.99,7.41-5.58,0-11.05-1.12-15.83-3.25-3.19-1.42-5.95-3.82-8.87-6.35-2.09-1.81-4.23-3.66-6.67-5.32l-3.81-2.58-2.93,3.54c-7.38,8.92-18.3,14.04-29.96,14.04-5.69,0-11.18-1.23-16.29-3.64-2.89-1.37-5.44-3.59-8.13-5.96-2.12-1.85-4.29-3.77-6.83-5.44l-3.79-2.49-2.89,3.5c-7.38,8.92-18.3,14.04-29.96,14.04-5.69,0-11.18-1.23-16.29-3.64-2.89-1.35-5.44-3.59-8.13-5.95-2.12-1.87-4.3-3.77-6.83-5.44l-3.79-2.49-2.89,3.5c-7.38,8.92-18.31,14.04-29.96,14.04-5.69,0-11.18-1.23-16.3-3.64-2.88-1.35-5.43-3.59-8.12-5.96-2.12-1.87-4.3-3.77-6.83-5.44l-3.8-2.49-2.88,3.5c-7.38,8.92-18.31,14.04-29.97,14.04-5.68,0-11.17-1.23-16.29-3.64-2.89-1.35-5.43-3.59-8.13-5.96-2.12-1.87-4.29-3.77-6.82-5.44l-3.55-2.33-2.92,3.08-.02-.05ZM414.8,164.54c.59,20.76,16.24,30.22,30.52,30.22s29.91-9.46,30.51-30.22l.14-5.19h-61.33l.14,5.19h.02ZM346.91,164.54c.59,20.76,16.24,30.22,30.51,30.22s29.91-9.46,30.52-30.22l.14-5.19h-61.33l.14,5.19h.02ZM279,164.54c.59,20.76,16.24,30.22,30.51,30.22s29.91-9.46,30.52-30.22l.14-5.19h-61.33l.14,5.19h.02ZM211.11,164.54c.58,20.76,16.23,30.22,30.51,30.22s29.91-9.46,30.52-30.22l.14-5.19h-61.33l.14,5.19h.02ZM143.2,164.54c.58,20.76,16.23,30.22,30.51,30.22s29.91-9.46,30.52-30.22l.14-5.19h-61.33l.14,5.19h.02ZM75.29,164.54c.58,20.76,16.23,30.22,30.51,30.22s29.91-9.46,30.52-30.22l.14-5.19h-61.33l.14,5.19h.02ZM7.39,164.54c.59,20.76,16.24,30.22,30.52,30.22s29.91-9.46,30.51-30.22l.15-5.19H7.25l.14,5.19ZM413.23,152.51h59.09l-46.93-77.78h-42.62l30.48,77.78h-.02ZM345.64,152.51h60.57l-32.3-77.78h-42.88l14.63,77.78h-.02ZM278.39,152.51h60.71l-16.45-77.78h-51.57l7.31,77.78ZM211.11,152.51h60.47l-7.3-77.78h-53.17v77.78ZM144.14,152.51h60.1v-77.78h-43.63l-16.45,77.78h-.02ZM77.19,152.51h60.41l14.63-77.78h-44.56l-30.48,77.78ZM10.92,152.51h59.09l30.48-77.78h-42.62L10.92,152.51ZM58.32,67.88h366.61V19.29c0-6.81-5.53-12.32-12.36-12.32H70.67c-6.83,0-12.35,5.51-12.35,12.32v48.6Z"/>
        <path class="cls-2" d="M272.14,438.63v-6.84h25.19c2.14,0,9.8-3.48,9.87-3.5,17.02-8.48,16.36-26.59,15.85-41.13-.16-4.46-.32-8.67-.02-12.41.96-12.19,6.56-22.08,15.74-27.84l2.39-1.49-.08-7.39-2.69-1.4c-9.46-4.92-14.59-17.51-15.36-27.11-.3-3.73-.14-7.95.02-12.39.53-14.56,1.19-32.67-15.83-41.15-.02,0-7.68-3.52-9.88-3.52h-25.18v-6.63h.6c3.11,0,6.3-.14,9.38-.28,2.96-.14,6.17-.28,9.13-.28,2.51,0,4.65.11,6.52.34,16.22,1.92,30.28,16.49,32.05,33.2.44,4.27.26,8.96.07,13.92-.5,12.96-1.05,27.62,10.25,37.77,1.87,1.67,6.25,4.34,13.29,8.5l.27.16c1.53.91,3.26,1.94,4.83,2.9-1.58.96-3.31,1.94-5.11,2.95-5.07,2.84-10.27,5.78-14,9.4-9.99,9.71-9.82,22.89-9.62,35.67.21,14.42.41,29.31-13.87,40.71-4.24,3.4-14.26,7.87-17.54,7.87h-26.23l-.04-.02Z"/>
        <path class="cls-2" d="M184.86,438.63c-3.69,0-13.73-4.94-18-8.41-13.82-11.22-13.62-25.86-13.43-40.03.18-13.03.38-26.52-10.32-36.37-1.99-1.85-6.56-4.59-13.83-8.91-1.44-.85-3.12-1.85-4.63-2.77,1.83-1.15,3.72-2.26,5.58-3.34,10-5.81,21.32-12.41,23.06-28.42.66-6.08.47-11.89.27-17.51-.41-11.89-.77-22.17,6.79-32.33,4.74-6.38,17.74-14.95,24.51-14.95h26.24v6.84h-25.19c-2.17,0-9.84,3.48-9.91,3.52-17.08,8.52-16.38,26.52-15.83,40.99.18,4.5.34,8.75.04,12.53-.96,12.19-6.56,22.08-15.74,27.84l-2.39,1.49.07,7.4,2.69,1.4c9.47,4.92,14.6,17.51,15.37,27.11.3,3.73.14,7.95-.02,12.39-.53,14.56-1.19,32.67,15.83,41.15.07.04,7.72,3.52,9.87,3.52h25.19v6.84h-26.24l.02.02Z"/>
        <path d="M308.89,42.3c-2.69,0-4.87-2.17-4.87-4.85s2.2-4.85,4.87-4.85,4.87,2.17,4.87,4.85-2.2,4.85-4.87,4.85Z"/>
        <path d="M350.99,42.3c-2.69,0-4.87-2.17-4.87-4.85s2.2-4.85,4.87-4.85,4.87,2.17,4.87,4.85-2.2,4.85-4.87,4.85Z"/>
        <path d="M393.12,42.3c-2.7,0-4.87-2.17-4.87-4.85s2.19-4.85,4.87-4.85,4.86,2.17,4.86,4.85-2.19,4.85-4.86,4.85Z"/>
      </g>
    </g>
  </g>
</svg>