<svg xmlns="http://www.w3.org/2000/svg" viewBox="0 0 108 108" width="108px" height="108px" preserveAspectRatio="xMidYMid meet" style="width: 100%; height: 100%; transform: unset !important;"><defs><clipPath id="__lottie_element_202"><rect width="108" height="108" x="0" y="0"></rect></clipPath><clipPath id="__lottie_element_204"><path d="M0,0 L1080,0 L1080,1080 L0,1080z"></path></clipPath></defs><g clip-path="url(#__lottie_element_202)"><g clip-path="url(#__lottie_element_204)" transform="matrix(0.14000000059604645,0,0,0.14000000059604645,-21.599998474121094,-21.599998474121094)" opacity="1" style="display: block;"><g transform="matrix(1,0,0,1,164.08099365234375,164.0870361328125)" opacity="1" style="display: block;"><g opacity="1" transform="matrix(1,0,0,1,375.9200134277344,468.87799072265625)"><path stroke-linecap="round" stroke-linejoin="round" fill-opacity="0" stroke="rgb(10,10,10)" stroke-opacity="1" stroke-width="8" d=" M340.9119873046875,-247.94500732421875 C340.9119873046875,-247.94500732421875 340.9119873046875,191.35400390625 340.9119873046875,191.35400390625 C340.9119873046875,222.58099365234375 315.5480041503906,247.94500732421875 284.25201416015625,247.94500732421875 C284.25201416015625,247.94500732421875 -284.25201416015625,247.94500732421875 -284.25201416015625,247.94500732421875 C-315.5469970703125,247.94500732421875 -340.9119873046875,222.58099365234375 -340.9119873046875,191.35400390625 C-340.9119873046875,191.35400390625 -340.9119873046875,-247.94500732421875 -340.9119873046875,-247.94500732421875"></path></g><g opacity="1" transform="matrix(1,0,0,1,375.91900634765625,110.93000030517578)"><path stroke-linecap="round" stroke-linejoin="round" fill-opacity="0" stroke="rgb(10,10,10)" stroke-opacity="1" stroke-width="8" d=" M340.91900634765625,75.92900085449219 C340.91900634765625,75.92900085449219 340.91900634765625,-19.316999435424805 340.91900634765625,-19.316999435424805 C340.91900634765625,-50.58300018310547 315.572998046875,-75.92900085449219 284.3070068359375,-75.92900085449219 C284.3070068359375,-75.92900085449219 -284.3070068359375,-75.92900085449219 -284.3070068359375,-75.92900085449219 C-315.572998046875,-75.92900085449219 -340.91900634765625,-50.58300018310547 -340.91900634765625,-19.316999435424805 C-340.91900634765625,-19.316999435424805 -340.91900634765625,75.92900085449219 -340.91900634765625,75.92900085449219 C-340.91900634765625,75.92900085449219 340.91900634765625,75.92900085449219 340.91900634765625,75.92900085449219z"></path></g><g opacity="1" transform="matrix(1,0,0,1,0,0)"><path stroke-linecap="round" stroke-linejoin="round" fill-opacity="0" stroke="rgb(10,10,10)" stroke-opacity="1" stroke-width="8" d=" M116.29299926757812,110.93000030517578 C116.29299926757812,110.93000030517578 129.3769989013672,110.93000030517578 129.3769989013672,110.93000030517578"></path></g><g opacity="1" transform="matrix(1,0,0,1,0,0)"><path stroke-linecap="round" stroke-linejoin="round" fill-opacity="0" stroke="rgb(10,10,10)" stroke-opacity="1" stroke-width="8" d=" M192.23800659179688,110.93000030517578 C192.23800659179688,110.93000030517578 205.32200622558594,110.93000030517578 205.32200622558594,110.93000030517578"></path></g><g opacity="1" transform="matrix(1,0,0,1,0,0)"><path stroke-linecap="round" stroke-linejoin="round" fill-opacity="0" stroke="rgb(10,10,10)" stroke-opacity="1" stroke-width="8" d=" M268.1830139160156,110.93000030517578 C268.1830139160156,110.93000030517578 281.2669982910156,110.93000030517578 281.2669982910156,110.93000030517578"></path></g><g opacity="1" transform="matrix(1,0,0,1,0,0)"><path stroke-linecap="round" stroke-linejoin="round" fill-opacity="0" stroke="rgb(10,10,10)" stroke-opacity="1" stroke-width="8" d=" M138.9429931640625,633.4869995117188 C138.9429931640625,633.4869995117188 299.1659851074219,633.4869995117188 299.1659851074219,633.4869995117188"></path></g><g opacity="1" transform="matrix(1,0,0,1,0,0)"><path stroke-linecap="round" stroke-linejoin="round" fill-opacity="0" stroke="rgb(10,10,10)" stroke-opacity="1" stroke-width="8" d=" M452.67401123046875,633.4869995117188 C452.67401123046875,633.4869995117188 612.8980102539062,633.4869995117188 612.8980102539062,633.4869995117188"></path></g></g><g transform="matrix(1,0,0,1,606.85498046875,636.7039794921875)" opacity="1" style="display: block;"><g opacity="1" transform="matrix(1,0,0,1,90.01200103759766,53.891998291015625)"><path stroke-linecap="round" stroke-linejoin="round" fill-opacity="0" stroke="rgb(10,10,10)" stroke-opacity="1" stroke-width="8" d=" M-80.11199951171875,-43.992000579833984 C-80.11199951171875,-43.992000579833984 80.11199951171875,-43.992000579833984 80.11199951171875,-43.992000579833984 C80.11199951171875,-43.992000579833984 80.11199951171875,43.992000579833984 80.11199951171875,43.992000579833984 C80.11199951171875,43.992000579833984 -80.11199951171875,43.992000579833984 -80.11199951171875,43.992000579833984 C-80.11199951171875,43.992000579833984 -80.11199951171875,-43.992000579833984 -80.11199951171875,-43.992000579833984z"></path></g></g><g transform="matrix(1,0,0,1,293.1239929199219,636.7039794921875)" opacity="1" style="display: block;"><g opacity="1" transform="matrix(1,0,0,1,90.01200103759766,53.891998291015625)"><path stroke-linecap="round" stroke-linejoin="round" fill-opacity="0" stroke="rgb(10,10,10)" stroke-opacity="1" stroke-width="8" d=" M-80.11199951171875,-43.992000579833984 C-80.11199951171875,-43.992000579833984 80.11199951171875,-43.992000579833984 80.11199951171875,-43.992000579833984 C80.11199951171875,-43.992000579833984 80.11199951171875,43.992000579833984 80.11199951171875,43.992000579833984 C80.11199951171875,43.992000579833984 -80.11199951171875,43.992000579833984 -80.11199951171875,43.992000579833984 C-80.11199951171875,43.992000579833984 -80.11199951171875,-43.992000579833984 -80.11199951171875,-43.992000579833984z"></path></g></g><g transform="matrix(1,0,0,1,298.72796630859375,433.9580078125)" opacity="1" style="display: block;"><g opacity="1" transform="matrix(1,0,0,1,241.2729949951172,77.41300201416016)"><path fill="rgb(47,182,148)" fill-opacity="1" d=" M-241.0229949951172,-77.16300201416016 C-241.0229949951172,-77.16300201416016 241.0229949951172,-77.16300201416016 241.0229949951172,-77.16300201416016 C241.0229949951172,-77.16300201416016 241.0229949951172,77.16300201416016 241.0229949951172,77.16300201416016 C241.0229949951172,77.16300201416016 -241.0229949951172,77.16300201416016 -241.0229949951172,77.16300201416016 C-241.0229949951172,77.16300201416016 -241.0229949951172,-77.16300201416016 -241.0229949951172,-77.16300201416016z"></path></g></g></g></g></svg>