<svg xmlns="http://www.w3.org/2000/svg" viewBox="0 0 1080 1080" width="108px" height="108px" preserveAspectRatio="xMidYMid meet" style="width: 100%; height: 100%; transform: unset !important;"><defs><clipPath id="__lottie_element_233"><rect width="1080" height="1080" x="0" y="0"></rect></clipPath></defs><g clip-path="url(#__lottie_element_233)"><g transform="matrix(1,0,0,1,271.39599609375,140.50799560546875)" opacity="1" style="display: block;"><g opacity="1" transform="matrix(1,0,0,1,268.60400390625,399.49200439453125)"><path stroke-linecap="round" stroke-linejoin="round" fill-opacity="0" stroke="rgb(10,10,10)" stroke-opacity="1" stroke-width="8" d=" M213.60400390625,-266.3710021972656 C213.60400390625,-266.3710021972656 213.60400390625,266.37200927734375 213.60400390625,266.37200927734375 C213.60400390625,309.5159912109375 178.6269989013672,344.49200439453125 135.48300170898438,344.49200439453125 C135.48300170898438,344.49200439453125 -135.48199462890625,344.49200439453125 -135.48199462890625,344.49200439453125 C-178.62600708007812,344.49200439453125 -213.60400390625,309.5169982910156 -213.60400390625,266.37200927734375 C-213.60400390625,266.37200927734375 -213.60400390625,-266.3710021972656 -213.60400390625,-266.3710021972656 C-213.60400390625,-309.5150146484375 -178.6269989013672,-344.4909973144531 -135.48199462890625,-344.4909973144531 C-135.48199462890625,-344.4909973144531 135.48500061035156,-344.4909973144531 135.48500061035156,-344.4909973144531 C178.6280059814453,-344.489990234375 213.60400390625,-309.5150146484375 213.60400390625,-266.3710021972656z"></path></g><g opacity="1" transform="matrix(1,0,0,1,0,0)"><path stroke-linecap="round" stroke-linejoin="round" fill-opacity="0" stroke="rgb(10,10,10)" stroke-opacity="1" stroke-width="8" d=" M232.81300354003906,119.47200012207031 C232.81300354003906,119.47200012207031 304.3949890136719,119.47200012207031 304.3949890136719,119.47200012207031"></path></g><g opacity="1" transform="matrix(1,0,0,1,268.6029968261719,663.8410034179688)"><path fill="rgb(47,182,148)" fill-opacity="1" d=" M26.691999435424805,-0.017999999225139618 C26.691999435424805,14.729999542236328 14.729000091552734,26.691999435424805 0.017999999225139618,26.691999435424805 C-14.729000091552734,26.691999435424805 -26.691999435424805,14.729999542236328 -26.691999435424805,-0.017999999225139618 C-26.691999435424805,-14.729000091552734 -14.729000091552734,-26.69099998474121 0.017999999225139618,-26.69099998474121 C14.730999946594238,-26.691999435424805 26.691999435424805,-14.729999542236328 26.691999435424805,-0.017999999225139618z"></path></g><g opacity="1" transform="matrix(1,0,0,1,268.6029968261719,335.052001953125)"><path fill="rgb(47,182,148)" fill-opacity="1" d=" M-32.994998931884766,-33.0359992980957 C-32.994998931884766,-33.0359992980957 32.994998931884766,-33.0359992980957 32.994998931884766,-33.0359992980957 C32.994998931884766,-33.0359992980957 32.994998931884766,33.0359992980957 32.994998931884766,33.0359992980957 C32.994998931884766,33.0359992980957 -32.994998931884766,33.0359992980957 -32.994998931884766,33.0359992980957 C-32.994998931884766,33.0359992980957 -32.994998931884766,-33.0359992980957 -32.994998931884766,-33.0359992980957z"></path></g><g opacity="1" transform="matrix(1,0,0,1,153.6439971923828,463.9320068359375)"><path fill="rgb(47,182,148)" fill-opacity="1" d=" M-32.99399948120117,-33.0359992980957 C-32.99399948120117,-33.0359992980957 32.99399948120117,-33.0359992980957 32.99399948120117,-33.0359992980957 C32.99399948120117,-33.0359992980957 32.99399948120117,33.0359992980957 32.99399948120117,33.0359992980957 C32.99399948120117,33.0359992980957 -32.99399948120117,33.0359992980957 -32.99399948120117,33.0359992980957 C-32.99399948120117,33.0359992980957 -32.99399948120117,-33.0359992980957 -32.99399948120117,-33.0359992980957z"></path></g><g opacity="1" transform="matrix(1,0,0,1,383.56298828125,463.9320068359375)"><path fill="rgb(47,182,148)" fill-opacity="1" d=" M-32.994998931884766,-33.0359992980957 C-32.994998931884766,-33.0359992980957 32.994998931884766,-33.0359992980957 32.994998931884766,-33.0359992980957 C32.994998931884766,-33.0359992980957 32.994998931884766,33.0359992980957 32.994998931884766,33.0359992980957 C32.994998931884766,33.0359992980957 -32.994998931884766,33.0359992980957 -32.994998931884766,33.0359992980957 C-32.994998931884766,33.0359992980957 -32.994998931884766,-33.0359992980957 -32.994998931884766,-33.0359992980957z"></path></g></g><g transform="matrix(1,0,0,1,271.3970031738281,140.50900268554688)" opacity="1" style="display: block;"><g opacity="1" transform="matrix(1,0,0,1,229.54299926757812,399.4909973144531)"><path stroke-linecap="round" stroke-linejoin="round" fill-opacity="0" stroke="rgb(10,10,10)" stroke-opacity="1" stroke-width="8" d=" M174.54299926757812,344.4909973144531 C174.54299926757812,344.4909973144531 -96.4229965209961,344.4909973144531 -96.4229965209961,344.4909973144531 C-139.56700134277344,344.4909973144531 -174.54299926757812,309.5150146484375 -174.54299926757812,266.3710021972656 C-174.54299926757812,266.3710021972656 -174.54299926757812,-266.3710021972656 -174.54299926757812,-266.3710021972656 C-174.54299926757812,-309.5150146484375 -139.5679931640625,-344.4909973144531 -96.4229965209961,-344.4909973144531 C-96.4229965209961,-344.4909973144531 174.54299926757812,-344.4909973144531 174.54299926757812,-344.4909973144531"></path></g></g><g transform="matrix(1,0,0,1,621.7150268554688,442.27398681640625)" opacity="1" style="display: block;"><g opacity="1" transform="matrix(1,0,0,1,33.244998931884766,33.2859992980957)"><path fill="rgb(47,182,148)" fill-opacity="1" d=" M-32.994998931884766,-33.0359992980957 C-32.994998931884766,-33.0359992980957 32.994998931884766,-33.0359992980957 32.994998931884766,-33.0359992980957 C32.994998931884766,-33.0359992980957 32.994998931884766,33.0359992980957 32.994998931884766,33.0359992980957 C32.994998931884766,33.0359992980957 -32.994998931884766,33.0359992980957 -32.994998931884766,33.0359992980957 C-32.994998931884766,33.0359992980957 -32.994998931884766,-33.0359992980957 -32.994998931884766,-33.0359992980957z"></path></g></g><g transform="matrix(1,0,0,1,506.7550048828125,571.1539916992188)" opacity="1" style="display: block;"><g opacity="1" transform="matrix(1,0,0,1,33.244998931884766,33.2859992980957)"><path fill="rgb(47,182,148)" fill-opacity="1" d=" M-32.994998931884766,-33.0359992980957 C-32.994998931884766,-33.0359992980957 32.994998931884766,-33.0359992980957 32.994998931884766,-33.0359992980957 C32.994998931884766,-33.0359992980957 32.994998931884766,33.0359992980957 32.994998931884766,33.0359992980957 C32.994998931884766,33.0359992980957 -32.994998931884766,33.0359992980957 -32.994998931884766,33.0359992980957 C-32.994998931884766,33.0359992980957 -32.994998931884766,-33.0359992980957 -32.994998931884766,-33.0359992980957z"></path></g></g><g transform="matrix(1,0,0,1,391.7960205078125,442.27398681640625)" opacity="1" style="display: block;"><g opacity="1" transform="matrix(1,0,0,1,33.24399948120117,33.2859992980957)"><path fill="rgb(47,182,148)" fill-opacity="1" d=" M-32.99399948120117,-33.0359992980957 C-32.99399948120117,-33.0359992980957 32.99399948120117,-33.0359992980957 32.99399948120117,-33.0359992980957 C32.99399948120117,-33.0359992980957 32.99399948120117,33.0359992980957 32.99399948120117,33.0359992980957 C32.99399948120117,33.0359992980957 -32.99399948120117,33.0359992980957 -32.99399948120117,33.0359992980957 C-32.99399948120117,33.0359992980957 -32.99399948120117,-33.0359992980957 -32.99399948120117,-33.0359992980957z"></path></g></g></g></svg>