<?xml version="1.0" encoding="UTF-8"?>
<svg id="Layer_2" data-name="Layer 2" xmlns="http://www.w3.org/2000/svg" xmlns:xlink="http://www.w3.org/1999/xlink" viewBox="0 0 487 432">
  <defs>
    <style>
      .cls-1 {
        fill: none;
      }

      .cls-2 {
        fill: #30b795;
      }

      .cls-3 {
        clip-path: url(#clippath);
      }
    </style>
    <clipPath id="clippath">
      <rect class="cls-1" width="487" height="432"/>
    </clipPath>
  </defs>
  <g id="Layer_1-2" data-name="Layer 1">
    <g class="cls-3">
      <g>
        <path d="M24.94,432c-.96-.47-1.86-.87-2.74-1.26-2.91-1.29-5.02-2.23-6.85-4.79-2.23-3.15-14.13-32.36-14.97-36.76-.71-3.76-1.03-10.76,4.9-15.51.64-.47,4.06-2.46,5.41-3.16h22.68V114.9c-.22-3.16,2.8-8.73,7.33-13.55,4.35-4.63,8.36-6.73,10.26-6.73h22.38l.26-73.54C75.7,8.77,86.17.32,99.73,0h287.58c14.86.54,25.23,9.85,26.41,23.72.95,11.09.51,23.19.08,34.89-.4,10.91-.81,22.18-.12,32.83l.2,3.17h22.19c1.88,0,5.67,1.98,9.89,6.4,4.62,4.84,7.86,10.7,7.71,13.93v255.57h22.69c1.29.64,4.38,2.4,4.96,2.81,4.57,3.45,6.58,9.39,5.35,15.85-.85,4.41-12.74,33.62-14.97,36.76-1.82,2.56-3.93,3.5-6.85,4.78-.88.39-1.79.79-2.75,1.27H24.94ZM11.9,380c-1.14.84-2.69,2.25-2.9,4.91-.28,3.48,12.22,33.54,12.35,33.79.76,1.43,2.16,4.1,5.93,4.43h.15l434.33-.44.71-.35c1.81-.89,2.62-2.46,3.1-3.4l.12-.24c.14-.25,12.63-30.32,12.35-33.79-.15-1.89-1.79-5.57-4.9-5.57H12.79l-.89.64h0ZM53.87,103.44c-4.04,0-11.67,7.63-11.67,11.67v255.41h402.65V115.11c0-4.04-7.65-11.67-11.68-11.67h-19.47v219.85c-.52,1.46-2.6,6.23-3.04,7-4.19,7.35-11.84,11.96-21.56,12.96l-289.38.06c-10.29-.45-18.46-4.89-22.99-12.5-.67-1.12-2.92-6.02-3.39-7.44V103.44h-19.48ZM82.18,319.85c0,6.17,7.99,13.76,14.51,13.76.45,0,.9-.03,1.34-.1l294.85-.45h.1c5.6-.33,11.9-8.86,11.9-13.21V73.22H82.18v246.63ZM248.97,8.64c-46.43,0-96.92.34-154.35,1.05-5.38.09-12.45,8.14-12.45,12.8v40.92h322.69V22.5c0-4.3-6.5-12.16-11.43-12.58h-.22c-45.4-.85-92.58-1.26-144.23-1.26v-.02Z"/>
        <path class="cls-2" d="M243.58,292.64c-11.24,0-18.34-1.81-19.79-3.08-1.52-1.34-1.56-5.87-1.59-9.18-.03-3.39-.06-6.32-1.29-8.4-1.19-2-6.83-3.57-6.89-3.58-.39-.06-.79-.09-1.2-.09-3.79,0-6.54,2.61-9.18,5.13-2.48,2.36-4.83,4.59-7.72,4.59-.67,0-1.34-.1-2.08-.33-1.76-.88-9.75-7.45-11.91-9.52-5.53-5.28-12.89-14.41-13.13-16.85-.24-3.2,2.46-6.06,5.08-8.84,2.55-2.71,4.96-5.26,4.75-8.56-.03-.48-1.77-6.8-3.78-7.98-2.08-1.23-5.06-1.31-8.52-1.4-3.12-.08-7.39-.19-9.05-1.46-2.09-1.64-4-15.92-3.03-27.74.56-6.86,1.6-10.41,3.45-11.85,1.94-1.51,5.8-1.73,11.64-2.05,1.25-.07,2.58-.15,4.01-.24l1.66-.11.92-1.38c5.35-7.97.36-13.37-2.95-16.93-3.18-3.43-4.92-5.55-3.82-9.2,1.34-4.41,20.15-23.22,24.54-24.54.91-.27,1.68-.4,2.52-.4.23,0,.45,0,.68.02,2.11.16,4.11,2.04,6.22,4.04,2.7,2.56,5.76,5.46,10.09,5.46,2.22,0,4.49-.8,6.74-2.39l1.08-.77.27-1.3c.43-2.01.52-4.28.61-6.68.18-4.41.38-9.42,2.87-10.88,1.84-1.08,8.15-2.17,18.13-2.17,7.57,0,14.93.65,17.91,1.59,3.56,1.12,3.95,5,4.19,11.28.09,2.31.18,4.71.62,6.85l.28,1.35,1.14.78c2.39,1.63,4.64,2.42,6.87,2.42,4.34,0,7.28-3.03,9.65-5.46,1.48-1.51,2.87-2.95,4.33-3.56.81-.34,1.62-.51,2.45-.51,3.8,0,7.79,3.49,11.31,6.57l1.03.89c8.16,7.08,16.16,16.93,15.42,21.18-.28,1.6-2.07,3.47-3.79,5.27-3.59,3.75-9,9.4-3.24,17.24l.82,1.12,1.38.22c1.59.25,3.48.34,5.47.42,4.2.18,10.54.46,11.86,2.91,3.26,6.06,2.84,33.84-.58,38.11-1.41,1.76-5.77,1.82-9.27,1.87-3.45.04-6.45.09-8.67,1.42-1.95,1.16-3.55,6.82-3.57,6.86-.64,4.2,2.33,7.35,4.94,10.13,3.48,3.69,5.52,6.22,4.36,10.04-.8,1.64-6.6,8.83-8.58,10.97-4.26,4.63-14.54,13.46-17.14,14-.26.03-.53.06-.81.06-3,0-5.78-2.56-8.47-5.03-2.67-2.47-5.2-4.8-8.4-4.8-.12,0-.26,0-.38.01-.51.03-6.79,1.74-8,3.78-1.17,1.99-1.22,4.79-1.27,8.32-.04,3.05-.11,7.64-1.38,9.02-1.26,1.38-8.26,3.32-19.89,3.32h.01ZM210.05,257.46c2.6.54,15.02,5.14,16.92,6.17,3.17,1.74,3.35,5.19,3.39,10.69,0,1.57.02,3.18.17,4.74l.03.38.12.36c1.18,3.62,5.97,4.12,10.97,4.12,3.77,0,7.84-.36,10.02-.55l1.85-.16.74-.52c2.16-1.5,2.27-4.32,2.43-8.23.12-3.07.3-7.62,1.74-9.65,2.52-1.38,14.97-6.75,16.76-7.32.25-.04.5-.07.74-.07,2.64,0,5.44,2.56,8.14,5.05,1.39,1.28,2.83,2.6,4.32,3.62l.86.59,4.39.05,14.11-14.46-.73-2c-1.12-3.06-3.31-5.49-5.24-7.63-2.99-3.33-4.65-5.35-3.87-8.25.45-1.51,5.8-14.24,6.58-15.61,1.18-1.93,3.94-2.15,8.33-2.29,3.06-.09,6.23-.19,8.98-1.46l2.01-.93-.37-22.38-18.39-3.94c-.78-2.1-1.85-4.28-2.98-6.54-2.33-4.67-4.96-9.98-3.67-13.12.62-1.52,2.32-3.33,3.97-5.07,1.42-1.5,2.88-3.06,3.96-4.73l.54-.82.04-4.35-13.69-13.36-1.04-.18c-.25-.04-.5-.07-.76-.07-2.46,0-4.59,1.9-7.55,4.53-2.08,1.84-5.47,4.87-7.43,5.17-2.78-.87-15.85-6.3-17.27-7.1-2.47-1.65-2.53-6.46-2.59-10.7-.02-1.33-.03-2.6-.12-3.8l-.03-.42-.12-.4c-1.18-3.62-5.98-4.13-10.97-4.13-3.78,0-7.86.36-10.03.55l-1.84.16-.74.52c-2.19,1.52-2.29,4.29-2.45,8.49-.1,2.87-.26,7.1-1.38,8.91-2.6,1.47-15.22,7.16-17.14,7.8-.17.02-.34.04-.52.04-2.49,0-5.6-2.77-8.08-4.99-2.66-2.38-4.97-4.45-7.69-4.45-.8,0-1.56.18-2.26.53l-.5.25-13.71,14,1.04,2.14c1.28,2.63,3.16,4.72,4.98,6.73,3.16,3.5,4.9,5.63,4.03,8.84-.46,1.52-5.79,14.28-6.55,15.66-1.07,1.68-5.52,1.78-8.78,1.86-2.47.06-4.81.11-6.7.71-4.7,1.49-4.34,8.58-3.92,16.79.09,1.73.18,3.68.11,4.33l-.27,2.52,2.34.97c2.8,1.16,5.88,1.31,8.86,1.46,5.29.26,7.74.63,8.97,3.16,1.06,2.19,5.77,13.61,6.17,15.27.52,2.55-2.51,5.94-4.94,8.65-2.81,3.15-5.72,6.4-3.92,9.96l.25.5,13.06,12.78,1.04.18c.21.03.45.06.69.06,2.21,0,4.09-1.65,7.18-4.37,2.1-1.84,5.55-4.88,7.37-5.29v.03Z"/>
        <path d="M242.9,406.4c-8.4,0-15.44-.28-18.84-.76-3.25-.45-4.42-2.85-4.44-4.75,0-.81.23-3.51,3.51-4.02,2.83-.44,11.04-.73,20.4-.73s17.54.29,20.37.73c1.65.26,2.93,1.42,3.45,3.11.18.61.66,2.73-1.08,4.31-.53.48-2.56,1.24-4.1,1.42-3.69.42-11.25.68-19.28.68Z"/>
        <path d="M118.79,41.3c-4.92,0-8.16-.32-8.89-.53-2.26-.69-3.36-3.03-3.3-4.98.05-1.29.58-2.93,2.81-3.43.82-.18,4.03-.37,8.34-.37,5.48,0,8.98.3,9.72.52,1.72.56,2.26,2.36,2.18,3.86-.09,1.76-1.08,4.02-3.61,4.58-.8.18-3.41.37-7.26.37v-.02Z"/>
        <path d="M199.64,41.34c-3.1,0-5.44-.22-6.38-.42-2.52-.56-3.41-2.88-3.4-4.71,0-.54.12-3.3,2.46-3.82,1.05-.24,4.56-.47,9.24-.47s7.44.21,8.33.42c1.76.4,2.44,1.87,2.69,2.72.51,1.74.1,3.63-.99,4.74-.82.6-5.12,1.52-11.94,1.52h-.01Z"/>
        <path d="M160.43,41.49c-2.01,0-4.28-.14-6.73-.42-3.33-.37-5.32-2-5.45-4.45-.09-1.7.84-3.77,3.09-4.28,1.32-.29,4.1-.59,7.34-.59,8.68,0,11.95,1.93,12.17,2.64.6,1.99.54,3.48-.16,4.41-1.26,1.7-5,2.67-10.26,2.67Z"/>
        <path class="cls-2" d="M243.51,240.53c-20.57,0-37.28-16.73-37.28-37.29s16.73-37.29,37.28-37.29,37.28,16.73,37.28,37.29-16.73,37.29-37.28,37.29ZM243.52,174.71c-15.72,0-28.51,12.79-28.51,28.51s12.79,28.5,28.51,28.5,28.51-12.79,28.51-28.5-12.79-28.51-28.51-28.51Z"/>
      </g>
    </g>
  </g>
</svg>