<svg xmlns="http://www.w3.org/2000/svg" viewBox="0 0 108 108" width="108px" height="108px" preserveAspectRatio="xMidYMid meet" style="width: 100%; height: 100%; transform: unset !important;"><defs><clipPath id="__lottie_element_219"><rect width="108" height="108" x="0" y="0"></rect></clipPath><clipPath id="__lottie_element_221"><path d="M0,0 L1080,0 L1080,1080 L0,1080z"></path></clipPath></defs><g clip-path="url(#__lottie_element_219)"><g clip-path="url(#__lottie_element_221)" transform="matrix(0.14769099652767181,0,0,0.14769099652767181,-25.753135681152344,-25.236236572265625)" opacity="1" style="display: block;"><g transform="matrix(1,0,0,1,198.8380126953125,317.7070007324219)" opacity="1" style="display: block;"><g opacity="1" transform="matrix(1,0,0,1,80.73899841308594,226.4219970703125)"><path stroke-linecap="round" stroke-linejoin="round" fill-opacity="0" stroke="rgb(0,0,0)" stroke-opacity="1" stroke-width="8" d=" M-26.01099967956543,191.42100524902344 C-26.01099967956543,191.42100524902344 -26.01099967956543,-138.375 -26.01099967956543,-138.375 C-26.01099967956543,-167.69400024414062 -2.2149999141693115,-191.42100524902344 26.01099967956543,-191.42100524902344"></path></g><g opacity="1" transform="matrix(1,0,0,1,600.5609741210938,226.42100524902344)"><path stroke-linecap="round" stroke-linejoin="round" fill-opacity="0" stroke="rgb(0,0,0)" stroke-opacity="1" stroke-width="8" d=" M-27.034000396728516,-191.42100524902344 C3.239000082015991,-191.42100524902344 27.034000396728516,-167.69400024414062 27.034000396728516,-138.375 C27.034000396728516,-138.375 27.034000396728516,191.42100524902344 27.034000396728516,191.42100524902344"></path></g><g opacity="1" transform="matrix(1,0,0,1,341.1619873046875,498.1659851074219)"><path fill="rgb(47,182,148)" fill-opacity="1" d=" M340.9119873046875,-5.756999969482422 C340.9119873046875,-5.756999969482422 340.9119873046875,-46.222999572753906 340.9119873046875,-46.222999572753906 C340.9119873046875,-46.222999572753906 -340.9119873046875,-46.222999572753906 -340.9119873046875,-46.222999572753906 C-340.9119873046875,-46.222999572753906 -340.9119873046875,-5.756999969482422 -340.9119873046875,-5.756999969482422 C-340.9119873046875,22.951000213623047 -317.6390075683594,46.2239990234375 -288.9309997558594,46.2239990234375 C-288.9309997558594,46.2239990234375 288.92999267578125,46.2239990234375 288.92999267578125,46.2239990234375 C317.6390075683594,46.2239990234375 340.9119873046875,22.95199966430664 340.9119873046875,-5.756999969482422z"></path></g></g><g transform="matrix(1,0,0,1,396.135009765625,405.69500732421875)" opacity="1" style="display: block;"><g opacity="1" transform="matrix(1,0,0,1,59.30500030517578,95.99099731445312)"><path stroke-linecap="round" stroke-linejoin="round" fill-opacity="0" stroke="rgb(47,182,148)" stroke-opacity="1" stroke-width="8" d=" M24.30500030517578,32.1870002746582 C24.30500030517578,32.1870002746582 -24.30500030517578,-0.014000000432133675 -24.30500030517578,-0.014000000432133675 C-24.30500030517578,-0.014000000432133675 24.261999130249023,-32.1870002746582 24.261999130249023,-32.1870002746582"></path></g><g opacity="1" transform="matrix(1,0,0,1,228.4250030517578,95.99099731445312)"><path stroke-linecap="round" stroke-linejoin="round" fill-opacity="0" stroke="rgb(47,182,148)" stroke-opacity="1" stroke-width="8" d=" M-24.304000854492188,-32.1870002746582 C-24.304000854492188,-32.1870002746582 24.304000854492188,0.014000000432133675 24.304000854492188,0.014000000432133675 C24.304000854492188,0.014000000432133675 -24.261999130249023,32.1870002746582 -24.261999130249023,32.1870002746582"></path></g><g opacity="1" transform="matrix(1,0,0,1,143.86399841308594,95.99099731445312)"><path stroke-linecap="round" stroke-linejoin="round" fill-opacity="0" stroke="rgb(47,182,148)" stroke-opacity="1" stroke-width="8" d=" M50.43600082397461,-88.99099731445312 C50.43600082397461,-88.99099731445312 -50.43600082397461,88.99099731445312 -50.43600082397461,88.99099731445312"></path></g></g><g transform="matrix(1,0,0,1,312.385009765625,182.90301513671875)" opacity="1" style="display: block;"><g opacity="1" transform="matrix(1,0,0,1,227.61500549316406,318.7829895019531)"><path stroke-linecap="round" stroke-linejoin="round" fill-opacity="0" stroke="rgb(0,0,0)" stroke-opacity="1" stroke-width="8" d=" M192.61500549316406,-169.63800048828125 C192.61500549316406,-169.63800048828125 192.61500549316406,120.41000366210938 192.61500549316406,120.41000366210938 C192.61500549316406,147.5469970703125 170.5240020751953,169.63699340820312 143.31900024414062,169.63699340820312 C143.31900024414062,169.63699340820312 -143.31900024414062,169.63699340820312 -143.31900024414062,169.63699340820312 C-170.5240020751953,169.63699340820312 -192.61500549316406,147.5469970703125 -192.61500549316406,120.41000366210938 C-192.61500549316406,120.41000366210938 -192.61500549316406,-169.63800048828125 -192.61500549316406,-169.63800048828125 C-192.61500549316406,-169.63800048828125 192.61500549316406,-169.63800048828125 192.61500549316406,-169.63800048828125z"></path></g><g opacity="1" transform="matrix(1,0,0,1,227.61399841308594,92.08699798583984)"><path stroke-linecap="round" stroke-linejoin="round" fill-opacity="0" stroke="rgb(0,0,0)" stroke-opacity="1" stroke-width="8" d=" M192.6009979248047,57.08700180053711 C192.6009979248047,57.08700180053711 192.6009979248047,-7.8379998207092285 192.6009979248047,-7.8379998207092285 C192.6009979248047,-35.03799819946289 170.552001953125,-57.08700180053711 143.3520050048828,-57.08700180053711 C143.3520050048828,-57.08700180053711 -143.3520050048828,-57.08700180053711 -143.3520050048828,-57.08700180053711 C-170.5500030517578,-57.08700180053711 -192.6009979248047,-35.03799819946289 -192.6009979248047,-7.8379998207092285 C-192.6009979248047,-7.8379998207092285 -192.6009979248047,57.08700180053711 -192.6009979248047,57.08700180053711 C-192.6009979248047,57.08700180053711 192.6009979248047,57.08700180053711 192.6009979248047,57.08700180053711z"></path></g><g opacity="1" transform="matrix(1,0,0,1,0,0)"><path stroke-linecap="round" stroke-linejoin="round" fill-opacity="0" stroke="rgb(0,0,0)" stroke-opacity="1" stroke-width="8" d=" M91.4020004272461,92.08799743652344 C91.4020004272461,92.08799743652344 80.7750015258789,92.08799743652344 91.4020004272461,92.08799743652344 C102.02899932861328,92.08799743652344 91.4020004272461,92.08799743652344 91.4020004272461,92.08799743652344z"></path></g><g opacity="1" transform="matrix(1,0,0,1,0,0)"><path stroke-linecap="round" stroke-linejoin="round" fill-opacity="0" stroke="rgb(0,0,0)" stroke-opacity="1" stroke-width="8" d=" M146.89999389648438,92.08799743652344 C146.89999389648438,92.08799743652344 136.27200317382812,92.08799743652344 146.89999389648438,92.08799743652344 C157.5279998779297,92.08799743652344 146.89999389648438,92.08799743652344 146.89999389648438,92.08799743652344z"></path></g><g opacity="1" transform="matrix(1,0,0,1,0,0)"><path stroke-linecap="round" stroke-linejoin="round" fill-opacity="0" stroke="rgb(0,0,0)" stroke-opacity="1" stroke-width="8" d=" M202.3979949951172,92.08799743652344 C202.3979949951172,92.08799743652344 191.77000427246094,92.08799743652344 202.3979949951172,92.08799743652344 C213.02499389648438,92.08799743652344 202.3979949951172,92.08799743652344 202.3979949951172,92.08799743652344z"></path></g></g></g></g></svg>